<svg width="800" height="800" viewBox="0 0 800 800" version="1.1" xmlns="http://www.w3.org/2000/svg" xmlns:xlink="http://www.w3.org/1999/xlink">
<title>Weather App</title>
<desc>Created using Figma</desc>
<g id="Canvas" transform="translate(377 419)">
<rect x="-377" y="-419" width="800" height="800" fill="#E5E5E5"/>
 clip-path="url(#clip-0)"<g id="Weather App">
<path d="M -377 -419L 423 -419L 423 381L -377 381L -377 -419Z" fill="#333333"/>
<g id="canvas icon">
<g id="Line">
<use xlink:href="#path0_stroke" transform="matrix(0.344299 0.93886 -0.940714 0.339201 -156.921 -404.682)" fill="#F2F2F2"/>
</g>
<g id="Line">
<use xlink:href="#path1_stroke" transform="matrix(-0.405597 0.914052 -0.91656 -0.399898 185.17 -419)" fill="#F2F2F2"/>
</g>
<g id="Line">
<use xlink:href="#path2_stroke" transform="matrix(-0.932054 0.362319 -0.367662 -0.92996 406.78 -186.848)" fill="#F2F2F2"/>
</g>
<g id="Line">
<use xlink:href="#path3_stroke" transform="matrix(-0.945389 -0.325945 0.330893 -0.943668 423 130.368)" fill="#F2F2F2"/>
</g>
<g id="Line">
<use xlink:href="#path4_stroke" transform="matrix(-0.374055 -0.927406 0.921472 -0.388445 211.579 358.716)" fill="#F2F2F2"/>
</g>
<g id="Line">
<use xlink:href="#path1_stroke" transform="matrix(0.405597 -0.914052 0.91656 0.399898 -101.567 381)" fill="#F2F2F2"/>
</g>
<g id="Line">
<use xlink:href="#path2_stroke" transform="matrix(0.932054 -0.362319 0.367662 0.92996 -353.992 189.49)" fill="#F2F2F2"/>
</g>
<g id="Line">
<use xlink:href="#path3_stroke" transform="matrix(0.945389 0.325945 -0.330893 0.943668 -377 -141.849)" fill="#F2F2F2"/>
</g>
<g id="Ellipse">
<use xlink:href="#path5_stroke" transform="translate(-156.921 -188.893)" fill="#F2F2F2"/>
</g>
</g>
<g id="Ellipse 2" style="mix-blend-mode:darken" filter="url(#filter0_b)">
<use xlink:href="#path6_fill" transform="translate(-543 -585)" fill="url(#paint9_radial)" style="mix-blend-mode:multiply"/>
<use xlink:href="#path6_fill" transform="translate(-543 -585)" fill="url(#paint10_linear)" style="mix-blend-mode:color"/>
</g>
<g id="text">
<g id="Summary of the current weather.">
<use xlink:href="#path7_fill" transform="translate(-227 61)" fill="#F2F2F2"/>
</g>
<g id="Place, Holder">
<use xlink:href="#path8_fill" transform="translate(-227 -212)" fill="#F2F2F2"/>
</g>
<g id="switch scale">
<g id="Rectangle">
<g filter="url(#filter1_i)">
<use xlink:href="#path9_fill" transform="translate(19 -51)" fill="#828282"/>
</g>
<use xlink:href="#path10_stroke" transform="translate(19 -51)" fill="#BDBDBD" style="mix-blend-mode:multiply"/>
</g>
<g id="57&#194;&#186;F">
<use xlink:href="#path11_fill" transform="translate(-84 -56)" fill="#F2F2F2"/>
</g>
<g id="F">
<use xlink:href="#path12_fill" transform="translate(19 -51)" fill="#F2F2F2"/>
</g>
<g id="C">
<use xlink:href="#path13_fill" transform="translate(74 -51)" fill="#F2F2F2" style="mix-blend-mode:multiply"/>
</g>
</g>
</g>
</g>
</g>
<defs>
<filter id="filter0_b" filterUnits="userSpaceOnUse" x="-377" y="-419" width="800" height="800" color-interpolation-filters="sRGB">
<feFlood flood-opacity="0" result="BackgroundImageFix"/>
<feGaussianBlur in="BackgroundImage" stdDeviation="8"/>
<feComposite in2="SourceAlpha" operator="in" result="effect1_backgroundBlur"/>
<feBlend mode="normal" in="SourceGraphic" in2="effect1_backgroundBlur" result="shape"/>
</filter>
<filter id="filter1_i" filterUnits="userSpaceOnUse" x="9" y="-61" width="126" height="80" color-interpolation-filters="sRGB">
<feFlood flood-opacity="0" result="BackgroundImageFix"/>
<feBlend mode="normal" in="SourceGraphic" in2="BackgroundImageFix" result="shape"/>
<feColorMatrix in="SourceAlpha" type="matrix" values="0 0 0 0 0 0 0 0 0 0 0 0 0 0 0 0 0 0 255 0" result="hardAlpha"/>
<feOffset dx="-4" dy="-4"/>
<feGaussianBlur stdDeviation="4"/>
<feComposite in2="hardAlpha" operator="arithmetic" k2="-1" k3="1"/>
<feColorMatrix type="matrix" values="0 0 0 0 0 0 0 0 0 0 0 0 0 0 0 0 0 0 0.64 0"/>
<feBlend mode="normal" in2="shape" result="effect1_innerShadow"/>
</filter>
<radialGradient id="paint9_radial" cx="0.5" cy="0.5" r="0.5" gradientUnits="userSpaceOnUse" gradientTransform="matrix(6.9315e-14 1132 -1132 6.9315e-14 1132 -6.9315e-14)">
<stop offset="0.657957" stop-color="#4F4F4F"/>
<stop offset="1" stop-color="#4F4F4F" stop-opacity="0"/>
</radialGradient>
<linearGradient id="paint10_linear" x1="0" y1="0" x2="1" y2="0" gradientUnits="userSpaceOnUse" gradientTransform="matrix(6.9315e-14 1132 -1132 6.9315e-14 1132 -6.9315e-14)">
<stop offset="0.00555556" stop-color="#9CFF75"/>
<stop offset="1" stop-color="#82BEFF"/>
</linearGradient>
<path id="path0_stroke" d="M 24 -48C 10.7452 -48 0 -37.2548 0 -24C 0 -10.7452 10.7452 0 24 0L 24 -48ZM 138.64 0C 151.895 0 162.64 -10.7452 162.64 -24C 162.64 -37.2548 151.895 -48 138.64 -48L 138.64 0ZM 24 0L 138.64 0L 138.64 -48L 24 -48L 24 0Z"/>
<path id="path1_stroke" d="M 24 -48C 10.7452 -48 0 -37.2548 0 -24C 0 -10.7452 10.7452 0 24 0L 24 -48ZM 138.703 0C 151.958 0 162.703 -10.7452 162.703 -24C 162.703 -37.2548 151.958 -48 138.703 -48L 138.703 0ZM 24 0L 138.703 0L 138.703 -48L 24 -48L 24 0Z"/>
<path id="path2_stroke" d="M 24 -48C 10.7452 -48 0 -37.2548 0 -24C 0 -10.7452 10.7452 0 24 0L 24 -48ZM 139.674 0C 152.929 0 163.674 -10.7452 163.674 -24C 163.674 -37.2548 152.929 -48 139.674 -48L 139.674 0ZM 24 0L 139.674 0L 139.674 -48L 24 -48L 24 0Z"/>
<path id="path3_stroke" d="M 24 -48C 10.7452 -48 0 -37.2548 0 -24C 0 -10.7452 10.7452 0 24 0L 24 -48ZM 139.709 0C 152.963 0 163.709 -10.7452 163.709 -24C 163.709 -37.2548 152.963 -48 139.709 -48L 139.709 0ZM 24 0L 139.709 0L 139.709 -48L 24 -48L 24 0Z"/>
<path id="path4_stroke" d="M 24 -48C 10.7452 -48 0 -37.2548 0 -24C 0 -10.7452 10.7452 0 24 0L 24 -48ZM 135.278 0C 148.533 0 159.278 -10.7452 159.278 -24C 159.278 -37.2548 148.533 -48 135.278 -48L 135.278 0ZM 24 0L 135.278 0L 135.278 -48L 24 -48L 24 0Z"/>
<path id="path5_stroke" d="M 336.869 178.917C 336.869 264.285 267.022 333.834 180.434 333.834L 180.434 381.834C 293.149 381.834 384.869 291.176 384.869 178.917L 336.869 178.917ZM 180.434 333.834C 93.8465 333.834 24 264.285 24 178.917L -24 178.917C -24 291.176 67.7198 381.834 180.434 381.834L 180.434 333.834ZM 24 178.917C 24 93.5494 93.8465 24 180.434 24L 180.434 -24C 67.7198 -24 -24 66.6584 -24 178.917L 24 178.917ZM 180.434 24C 267.022 24 336.869 93.5494 336.869 178.917L 384.869 178.917C 384.869 66.6584 293.149 -24 180.434 -24L 180.434 24Z"/>
<path id="path6_fill" d="M 1132 566C 1132 878.593 878.593 1132 566 1132C 253.407 1132 0 878.593 0 566C 0 253.407 253.407 0 566 0C 878.593 0 1132 253.407 1132 566Z"/>
<path id="path7_fill" d="M 71.7402 54.5918C 68.8457 53.7598 66.7363 52.7402 65.4121 51.5332C 64.0996 50.3145 63.4434 48.8145 63.4434 47.0332C 63.4434 45.0176 64.2461 43.3535 65.8516 42.041C 67.4688 40.7168 69.5664 40.0547 72.1445 40.0547C 73.9023 40.0547 75.4668 40.3945 76.8379 41.0742C 78.2207 41.7539 79.2871 42.6914 80.0371 43.8867C 80.7988 45.082 81.1797 46.3887 81.1797 47.8066L 77.7871 47.8066C 77.7871 46.2598 77.2949 45.0469 76.3105 44.168C 75.3262 43.2773 73.9375 42.832 72.1445 42.832C 70.4805 42.832 69.1797 43.2012 68.2422 43.9395C 67.3164 44.666 66.8535 45.6797 66.8535 46.9805C 66.8535 48.0234 67.293 48.9082 68.1719 49.6348C 69.0625 50.3496 70.5684 51.0059 72.6895 51.6035C 74.8223 52.2012 76.4863 52.8633 77.6816 53.5898C 78.8887 54.3047 79.7793 55.1426 80.3535 56.1035C 80.9395 57.0645 81.2324 58.1953 81.2324 59.4961C 81.2324 61.5703 80.4238 63.2344 78.8066 64.4883C 77.1895 65.7305 75.0273 66.3516 72.3203 66.3516C 70.5625 66.3516 68.9219 66.0176 67.3984 65.3496C 65.875 64.6699 64.6973 63.7441 63.8652 62.5723C 63.0449 61.4004 62.6348 60.0703 62.6348 58.582L 66.0273 58.582C 66.0273 60.1289 66.5957 61.3535 67.7324 62.2559C 68.8809 63.1465 70.4102 63.5918 72.3203 63.5918C 74.1016 63.5918 75.4668 63.2285 76.416 62.502C 77.3652 61.7754 77.8398 60.7852 77.8398 59.5312C 77.8398 58.2773 77.4004 57.3105 76.5215 56.6309C 75.6426 55.9395 74.0488 55.2598 71.7402 54.5918ZM 96.8066 64.1191C 95.541 65.6074 93.6836 66.3516 91.2344 66.3516C 89.207 66.3516 87.6602 65.7656 86.5938 64.5938C 85.5391 63.4102 85.0059 61.6641 84.9941 59.3555L 84.9941 46.9805L 88.2461 46.9805L 88.2461 59.2676C 88.2461 62.1504 89.418 63.5918 91.7617 63.5918C 94.2461 63.5918 95.8984 62.666 96.7188 60.8145L 96.7188 46.9805L 99.9707 46.9805L 99.9707 66L 96.877 66L 96.8066 64.1191ZM 107.986 46.9805L 108.074 49.0898C 109.469 47.4492 111.35 46.6289 113.717 46.6289C 116.377 46.6289 118.188 47.6484 119.148 49.6875C 119.781 48.7734 120.602 48.0352 121.609 47.4727C 122.629 46.9102 123.83 46.6289 125.213 46.6289C 129.385 46.6289 131.506 48.8379 131.576 53.2559L 131.576 66L 128.324 66L 128.324 53.4492C 128.324 52.0898 128.014 51.0762 127.393 50.4082C 126.771 49.7285 125.729 49.3887 124.264 49.3887C 123.057 49.3887 122.055 49.752 121.258 50.4785C 120.461 51.1934 119.998 52.1602 119.869 53.3789L 119.869 66L 116.6 66L 116.6 53.5371C 116.6 50.7715 115.246 49.3887 112.539 49.3887C 110.406 49.3887 108.947 50.2969 108.162 52.1133L 108.162 66L 104.91 66L 104.91 46.9805L 107.986 46.9805ZM 139.557 46.9805L 139.645 49.0898C 141.039 47.4492 142.92 46.6289 145.287 46.6289C 147.947 46.6289 149.758 47.6484 150.719 49.6875C 151.352 48.7734 152.172 48.0352 153.18 47.4727C 154.199 46.9102 155.4 46.6289 156.783 46.6289C 160.955 46.6289 163.076 48.8379 163.146 53.2559L 163.146 66L 159.895 66L 159.895 53.4492C 159.895 52.0898 159.584 51.0762 158.963 50.4082C 158.342 49.7285 157.299 49.3887 155.834 49.3887C 154.627 49.3887 153.625 49.752 152.828 50.4785C 152.031 51.1934 151.568 52.1602 151.439 53.3789L 151.439 66L 148.17 66L 148.17 53.5371C 148.17 50.7715 146.816 49.3887 144.109 49.3887C 141.977 49.3887 140.518 50.2969 139.732 52.1133L 139.732 66L 136.48 66L 136.48 46.9805L 139.557 46.9805ZM 179.811 66C 179.623 65.625 179.471 64.957 179.354 63.9961C 177.842 65.5664 176.037 66.3516 173.939 66.3516C 172.064 66.3516 170.523 65.8242 169.316 64.7695C 168.121 63.7031 167.523 62.3555 167.523 60.7266C 167.523 58.7461 168.273 57.2109 169.773 56.1211C 171.285 55.0195 173.406 54.4688 176.137 54.4688L 179.301 54.4688L 179.301 52.9746C 179.301 51.8379 178.961 50.9355 178.281 50.2676C 177.602 49.5879 176.6 49.248 175.275 49.248C 174.115 49.248 173.143 49.541 172.357 50.127C 171.572 50.7129 171.18 51.4219 171.18 52.2539L 167.91 52.2539C 167.91 51.3047 168.244 50.3906 168.912 49.5117C 169.592 48.6211 170.506 47.918 171.654 47.4023C 172.814 46.8867 174.086 46.6289 175.469 46.6289C 177.66 46.6289 179.377 47.1797 180.619 48.2812C 181.861 49.3711 182.506 50.877 182.553 52.7988L 182.553 61.5527C 182.553 63.2988 182.775 64.6875 183.221 65.7188L 183.221 66L 179.811 66ZM 174.414 63.5215C 175.434 63.5215 176.4 63.2578 177.314 62.7305C 178.229 62.2031 178.891 61.5176 179.301 60.6738L 179.301 56.7715L 176.752 56.7715C 172.768 56.7715 170.775 57.9375 170.775 60.2695C 170.775 61.2891 171.115 62.0859 171.795 62.6602C 172.475 63.2344 173.348 63.5215 174.414 63.5215ZM 196.844 49.8984C 196.352 49.8164 195.818 49.7754 195.244 49.7754C 193.111 49.7754 191.664 50.6836 190.902 52.5L 190.902 66L 187.65 66L 187.65 46.9805L 190.814 46.9805L 190.867 49.1777C 191.934 47.4785 193.445 46.6289 195.402 46.6289C 196.035 46.6289 196.516 46.7109 196.844 46.875L 196.844 49.8984ZM 206.389 61.2363L 210.818 46.9805L 214.299 46.9805L 206.652 68.9355C 205.469 72.0996 203.588 73.6816 201.01 73.6816L 200.395 73.6289L 199.182 73.4004L 199.182 70.7637L 200.061 70.834C 201.162 70.834 202.018 70.6113 202.627 70.166C 203.248 69.7207 203.758 68.9062 204.156 67.7227L 204.877 65.7891L 198.092 46.9805L 201.643 46.9805L 206.389 61.2363ZM 225.285 56.3145C 225.285 54.4512 225.648 52.7754 226.375 51.2871C 227.113 49.7988 228.133 48.6504 229.434 47.8418C 230.746 47.0332 232.24 46.6289 233.916 46.6289C 236.506 46.6289 238.598 47.5254 240.191 49.3184C 241.797 51.1113 242.6 53.4961 242.6 56.4727L 242.6 56.7012C 242.6 58.5527 242.242 60.2168 241.527 61.6934C 240.824 63.1582 239.811 64.3008 238.486 65.1211C 237.174 65.9414 235.662 66.3516 233.951 66.3516C 231.373 66.3516 229.281 65.4551 227.676 63.6621C 226.082 61.8691 225.285 59.4961 225.285 56.543L 225.285 56.3145ZM 228.555 56.7012C 228.555 58.8105 229.041 60.5039 230.014 61.7812C 230.998 63.0586 232.311 63.6973 233.951 63.6973C 235.604 63.6973 236.916 63.0527 237.889 61.7637C 238.861 60.4629 239.348 58.6465 239.348 56.3145C 239.348 54.2285 238.85 52.541 237.854 51.252C 236.869 49.9512 235.557 49.3008 233.916 49.3008C 232.311 49.3008 231.016 49.9395 230.031 51.2168C 229.047 52.4941 228.555 54.3223 228.555 56.7012ZM 248.277 66L 248.277 49.4941L 245.271 49.4941L 245.271 46.9805L 248.277 46.9805L 248.277 45.0293C 248.277 42.9902 248.822 41.4141 249.912 40.3008C 251.002 39.1875 252.543 38.6309 254.535 38.6309C 255.285 38.6309 256.029 38.7305 256.768 38.9297L 256.592 41.5664C 256.041 41.4609 255.455 41.4082 254.834 41.4082C 253.779 41.4082 252.965 41.7188 252.391 42.3398C 251.816 42.9492 251.529 43.8281 251.529 44.9766L 251.529 46.9805L 255.59 46.9805L 255.59 49.4941L 251.529 49.4941L 251.529 66L 248.277 66ZM 272.535 42.375L 272.535 46.9805L 276.086 46.9805L 276.086 49.4941L 272.535 49.4941L 272.535 61.2891C 272.535 62.0508 272.693 62.625 273.01 63.0117C 273.326 63.3867 273.865 63.5742 274.627 63.5742C 275.002 63.5742 275.518 63.5039 276.174 63.3633L 276.174 66C 275.318 66.2344 274.486 66.3516 273.678 66.3516C 272.225 66.3516 271.129 65.9121 270.391 65.0332C 269.652 64.1543 269.283 62.9062 269.283 61.2891L 269.283 49.4941L 265.82 49.4941L 265.82 46.9805L 269.283 46.9805L 269.283 42.375L 272.535 42.375ZM 283.152 49.2832C 284.594 47.5137 286.469 46.6289 288.777 46.6289C 292.797 46.6289 294.824 48.8965 294.859 53.4316L 294.859 66L 291.607 66L 291.607 53.4141C 291.596 52.043 291.279 51.0293 290.658 50.373C 290.049 49.7168 289.094 49.3887 287.793 49.3887C 286.738 49.3887 285.812 49.6699 285.016 50.2324C 284.219 50.7949 283.598 51.5332 283.152 52.4473L 283.152 66L 279.9 66L 279.9 39L 283.152 39L 283.152 49.2832ZM 307.621 66.3516C 305.043 66.3516 302.945 65.5078 301.328 63.8203C 299.711 62.1211 298.902 59.8535 298.902 57.0176L 298.902 56.4199C 298.902 54.5332 299.26 52.8516 299.975 51.375C 300.701 49.8867 301.709 48.7266 302.998 47.8945C 304.299 47.0508 305.705 46.6289 307.217 46.6289C 309.689 46.6289 311.611 47.4434 312.982 49.0723C 314.354 50.7012 315.039 53.0332 315.039 56.0684L 315.039 57.4219L 302.154 57.4219C 302.201 59.2969 302.746 60.8145 303.789 61.9746C 304.844 63.123 306.18 63.6973 307.797 63.6973C 308.945 63.6973 309.918 63.4629 310.715 62.9941C 311.512 62.5254 312.209 61.9043 312.807 61.1309L 314.793 62.6777C 313.199 65.127 310.809 66.3516 307.621 66.3516ZM 307.217 49.3008C 305.904 49.3008 304.803 49.7812 303.912 50.7422C 303.021 51.6914 302.471 53.0273 302.26 54.75L 311.787 54.75L 311.787 54.5039C 311.693 52.8516 311.248 51.5742 310.451 50.6719C 309.654 49.7578 308.576 49.3008 307.217 49.3008ZM 335.377 63.6973C 336.537 63.6973 337.551 63.3457 338.418 62.6426C 339.285 61.9395 339.766 61.0605 339.859 60.0059L 342.936 60.0059C 342.877 61.0957 342.502 62.1328 341.811 63.1172C 341.119 64.1016 340.193 64.8867 339.033 65.4727C 337.885 66.0586 336.666 66.3516 335.377 66.3516C 332.787 66.3516 330.725 65.4902 329.189 63.7676C 327.666 62.0332 326.904 59.666 326.904 56.666L 326.904 56.1211C 326.904 54.2695 327.244 52.623 327.924 51.1816C 328.604 49.7402 329.576 48.6211 330.842 47.8242C 332.119 47.0273 333.625 46.6289 335.359 46.6289C 337.492 46.6289 339.262 47.2676 340.668 48.5449C 342.086 49.8223 342.842 51.4805 342.936 53.5195L 339.859 53.5195C 339.766 52.2891 339.297 51.2812 338.453 50.4961C 337.621 49.6992 336.59 49.3008 335.359 49.3008C 333.707 49.3008 332.424 49.8984 331.51 51.0938C 330.607 52.2773 330.156 53.9941 330.156 56.2441L 330.156 56.8594C 330.156 59.0508 330.607 60.7383 331.51 61.9219C 332.412 63.1055 333.701 63.6973 335.377 63.6973ZM 358.334 64.1191C 357.068 65.6074 355.211 66.3516 352.762 66.3516C 350.734 66.3516 349.188 65.7656 348.121 64.5938C 347.066 63.4102 346.533 61.6641 346.521 59.3555L 346.521 46.9805L 349.773 46.9805L 349.773 59.2676C 349.773 62.1504 350.945 63.5918 353.289 63.5918C 355.773 63.5918 357.426 62.666 358.246 60.8145L 358.246 46.9805L 361.498 46.9805L 361.498 66L 358.404 66L 358.334 64.1191ZM 375.648 49.8984C 375.156 49.8164 374.623 49.7754 374.049 49.7754C 371.916 49.7754 370.469 50.6836 369.707 52.5L 369.707 66L 366.455 66L 366.455 46.9805L 369.619 46.9805L 369.672 49.1777C 370.738 47.4785 372.25 46.6289 374.207 46.6289C 374.84 46.6289 375.32 46.7109 375.648 46.875L 375.648 49.8984ZM 387.848 49.8984C 387.355 49.8164 386.822 49.7754 386.248 49.7754C 384.115 49.7754 382.668 50.6836 381.906 52.5L 381.906 66L 378.654 66L 378.654 46.9805L 381.818 46.9805L 381.871 49.1777C 382.938 47.4785 384.449 46.6289 386.406 46.6289C 387.039 46.6289 387.52 46.7109 387.848 46.875L 387.848 49.8984ZM 398.395 66.3516C 395.816 66.3516 393.719 65.5078 392.102 63.8203C 390.484 62.1211 389.676 59.8535 389.676 57.0176L 389.676 56.4199C 389.676 54.5332 390.033 52.8516 390.748 51.375C 391.475 49.8867 392.482 48.7266 393.771 47.8945C 395.072 47.0508 396.479 46.6289 397.99 46.6289C 400.463 46.6289 402.385 47.4434 403.756 49.0723C 405.127 50.7012 405.812 53.0332 405.812 56.0684L 405.812 57.4219L 392.928 57.4219C 392.975 59.2969 393.52 60.8145 394.562 61.9746C 395.617 63.123 396.953 63.6973 398.57 63.6973C 399.719 63.6973 400.691 63.4629 401.488 62.9941C 402.285 62.5254 402.982 61.9043 403.58 61.1309L 405.566 62.6777C 403.973 65.127 401.582 66.3516 398.395 66.3516ZM 397.99 49.3008C 396.678 49.3008 395.576 49.7812 394.686 50.7422C 393.795 51.6914 393.244 53.0273 393.033 54.75L 402.561 54.75L 402.561 54.5039C 402.467 52.8516 402.021 51.5742 401.225 50.6719C 400.428 49.7578 399.35 49.3008 397.99 49.3008ZM 412.668 46.9805L 412.773 49.3711C 414.227 47.543 416.125 46.6289 418.469 46.6289C 422.488 46.6289 424.516 48.8965 424.551 53.4316L 424.551 66L 421.299 66L 421.299 53.4141C 421.287 52.043 420.971 51.0293 420.35 50.373C 419.74 49.7168 418.785 49.3887 417.484 49.3887C 416.43 49.3887 415.504 49.6699 414.707 50.2324C 413.91 50.7949 413.289 51.5332 412.844 52.4473L 412.844 66L 409.592 66L 409.592 46.9805L 412.668 46.9805ZM 433.867 42.375L 433.867 46.9805L 437.418 46.9805L 437.418 49.4941L 433.867 49.4941L 433.867 61.2891C 433.867 62.0508 434.025 62.625 434.342 63.0117C 434.658 63.3867 435.197 63.5742 435.959 63.5742C 436.334 63.5742 436.85 63.5039 437.506 63.3633L 437.506 66C 436.65 66.2344 435.818 66.3516 435.01 66.3516C 433.557 66.3516 432.461 65.9121 431.723 65.0332C 430.984 64.1543 430.615 62.9062 430.615 61.2891L 430.615 49.4941L 427.152 49.4941L 427.152 46.9805L 430.615 46.9805L 430.615 42.375L 433.867 42.375ZM 201.326 103.518L 204.982 88.9805L 208.234 88.9805L 202.697 108L 200.061 108L 195.438 93.5859L 190.938 108L 188.301 108L 182.781 88.9805L 186.016 88.9805L 189.76 103.219L 194.189 88.9805L 196.809 88.9805L 201.326 103.518ZM 219.449 108.352C 216.871 108.352 214.773 107.508 213.156 105.82C 211.539 104.121 210.73 101.854 210.73 99.0176L 210.73 98.4199C 210.73 96.5332 211.088 94.8516 211.803 93.375C 212.529 91.8867 213.537 90.7266 214.826 89.8945C 216.127 89.0508 217.533 88.6289 219.045 88.6289C 221.518 88.6289 223.439 89.4434 224.811 91.0723C 226.182 92.7012 226.867 95.0332 226.867 98.0684L 226.867 99.4219L 213.982 99.4219C 214.029 101.297 214.574 102.814 215.617 103.975C 216.672 105.123 218.008 105.697 219.625 105.697C 220.773 105.697 221.746 105.463 222.543 104.994C 223.34 104.525 224.037 103.904 224.635 103.131L 226.621 104.678C 225.027 107.127 222.637 108.352 219.449 108.352ZM 219.045 91.3008C 217.732 91.3008 216.631 91.7812 215.74 92.7422C 214.85 93.6914 214.299 95.0273 214.088 96.75L 223.615 96.75L 223.615 96.5039C 223.521 94.8516 223.076 93.5742 222.279 92.6719C 221.482 91.7578 220.404 91.3008 219.045 91.3008ZM 242.389 108C 242.201 107.625 242.049 106.957 241.932 105.996C 240.42 107.566 238.615 108.352 236.518 108.352C 234.643 108.352 233.102 107.824 231.895 106.77C 230.699 105.703 230.102 104.355 230.102 102.727C 230.102 100.746 230.852 99.2109 232.352 98.1211C 233.863 97.0195 235.984 96.4688 238.715 96.4688L 241.879 96.4688L 241.879 94.9746C 241.879 93.8379 241.539 92.9355 240.859 92.2676C 240.18 91.5879 239.178 91.248 237.854 91.248C 236.693 91.248 235.721 91.541 234.936 92.127C 234.15 92.7129 233.758 93.4219 233.758 94.2539L 230.488 94.2539C 230.488 93.3047 230.822 92.3906 231.49 91.5117C 232.17 90.6211 233.084 89.918 234.232 89.4023C 235.393 88.8867 236.664 88.6289 238.047 88.6289C 240.238 88.6289 241.955 89.1797 243.197 90.2812C 244.439 91.3711 245.084 92.877 245.131 94.7988L 245.131 103.553C 245.131 105.299 245.354 106.688 245.799 107.719L 245.799 108L 242.389 108ZM 236.992 105.521C 238.012 105.521 238.979 105.258 239.893 104.73C 240.807 104.203 241.469 103.518 241.879 102.674L 241.879 98.7715L 239.33 98.7715C 235.346 98.7715 233.354 99.9375 233.354 102.27C 233.354 103.289 233.693 104.086 234.373 104.66C 235.053 105.234 235.926 105.521 236.992 105.521ZM 254.641 84.375L 254.641 88.9805L 258.191 88.9805L 258.191 91.4941L 254.641 91.4941L 254.641 103.289C 254.641 104.051 254.799 104.625 255.115 105.012C 255.432 105.387 255.971 105.574 256.732 105.574C 257.107 105.574 257.623 105.504 258.279 105.363L 258.279 108C 257.424 108.234 256.592 108.352 255.783 108.352C 254.33 108.352 253.234 107.912 252.496 107.033C 251.758 106.154 251.389 104.906 251.389 103.289L 251.389 91.4941L 247.926 91.4941L 247.926 88.9805L 251.389 88.9805L 251.389 84.375L 254.641 84.375ZM 265.258 91.2832C 266.699 89.5137 268.574 88.6289 270.883 88.6289C 274.902 88.6289 276.93 90.8965 276.965 95.4316L 276.965 108L 273.713 108L 273.713 95.4141C 273.701 94.043 273.385 93.0293 272.764 92.373C 272.154 91.7168 271.199 91.3887 269.898 91.3887C 268.844 91.3887 267.918 91.6699 267.121 92.2324C 266.324 92.7949 265.703 93.5332 265.258 94.4473L 265.258 108L 262.006 108L 262.006 81L 265.258 81L 265.258 91.2832ZM 289.727 108.352C 287.148 108.352 285.051 107.508 283.434 105.82C 281.816 104.121 281.008 101.854 281.008 99.0176L 281.008 98.4199C 281.008 96.5332 281.365 94.8516 282.08 93.375C 282.807 91.8867 283.814 90.7266 285.104 89.8945C 286.404 89.0508 287.811 88.6289 289.322 88.6289C 291.795 88.6289 293.717 89.4434 295.088 91.0723C 296.459 92.7012 297.145 95.0332 297.145 98.0684L 297.145 99.4219L 284.26 99.4219C 284.307 101.297 284.852 102.814 285.895 103.975C 286.949 105.123 288.285 105.697 289.902 105.697C 291.051 105.697 292.023 105.463 292.82 104.994C 293.617 104.525 294.314 103.904 294.912 103.131L 296.898 104.678C 295.305 107.127 292.914 108.352 289.727 108.352ZM 289.322 91.3008C 288.01 91.3008 286.908 91.7812 286.018 92.7422C 285.127 93.6914 284.576 95.0273 284.365 96.75L 293.893 96.75L 293.893 96.5039C 293.799 94.8516 293.354 93.5742 292.557 92.6719C 291.76 91.7578 290.682 91.3008 289.322 91.3008ZM 310.117 91.8984C 309.625 91.8164 309.092 91.7754 308.518 91.7754C 306.385 91.7754 304.938 92.6836 304.176 94.5L 304.176 108L 300.924 108L 300.924 88.9805L 304.088 88.9805L 304.141 91.1777C 305.207 89.4785 306.719 88.6289 308.676 88.6289C 309.309 88.6289 309.789 88.7109 310.117 88.875L 310.117 91.8984ZM 311.014 106.295C 311.014 105.732 311.178 105.264 311.506 104.889C 311.846 104.514 312.35 104.326 313.018 104.326C 313.686 104.326 314.189 104.514 314.529 104.889C 314.881 105.264 315.057 105.732 315.057 106.295C 315.057 106.834 314.881 107.285 314.529 107.648C 314.189 108.012 313.686 108.193 313.018 108.193C 312.35 108.193 311.846 108.012 311.506 107.648C 311.178 107.285 311.014 106.834 311.014 106.295Z"/>
<path id="path8_fill" d="M 115.82 28.9766L 115.82 41L 108.789 41L 108.789 6.875L 122.102 6.875C 124.664 6.875 126.914 7.34375 128.852 8.28125C 130.805 9.21875 132.305 10.5547 133.352 12.2891C 134.398 14.0078 134.922 15.9688 134.922 18.1719C 134.922 21.5156 133.773 24.1562 131.477 26.0938C 129.195 28.0156 126.031 28.9766 121.984 28.9766L 115.82 28.9766ZM 115.82 23.2812L 122.102 23.2812C 123.961 23.2812 125.375 22.8438 126.344 21.9688C 127.328 21.0938 127.82 19.8438 127.82 18.2188C 127.82 16.5469 127.328 15.1953 126.344 14.1641C 125.359 13.1328 124 12.6016 122.266 12.5703L 115.82 12.5703L 115.82 23.2812ZM 146.477 41L 139.68 41L 139.68 5L 146.477 5L 146.477 41ZM 166.773 41C 166.461 40.3906 166.234 39.6328 166.094 38.7266C 164.453 40.5547 162.32 41.4688 159.695 41.4688C 157.211 41.4688 155.148 40.75 153.508 39.3125C 151.883 37.875 151.07 36.0625 151.07 33.875C 151.07 31.1875 152.062 29.125 154.047 27.6875C 156.047 26.25 158.93 25.5234 162.695 25.5078L 165.812 25.5078L 165.812 24.0547C 165.812 22.8828 165.508 21.9453 164.898 21.2422C 164.305 20.5391 163.359 20.1875 162.062 20.1875C 160.922 20.1875 160.023 20.4609 159.367 21.0078C 158.727 21.5547 158.406 22.3047 158.406 23.2578L 151.633 23.2578C 151.633 21.7891 152.086 20.4297 152.992 19.1797C 153.898 17.9297 155.18 16.9531 156.836 16.25C 158.492 15.5312 160.352 15.1719 162.414 15.1719C 165.539 15.1719 168.016 15.9609 169.844 17.5391C 171.688 19.1016 172.609 21.3047 172.609 24.1484L 172.609 35.1406C 172.625 37.5469 172.961 39.3672 173.617 40.6016L 173.617 41L 166.773 41ZM 161.172 36.2891C 162.172 36.2891 163.094 36.0703 163.938 35.6328C 164.781 35.1797 165.406 34.5781 165.812 33.8281L 165.812 29.4688L 163.281 29.4688C 159.891 29.4688 158.086 30.6406 157.867 32.9844L 157.844 33.3828C 157.844 34.2266 158.141 34.9219 158.734 35.4688C 159.328 36.0156 160.141 36.2891 161.172 36.2891ZM 188.359 36.0078C 189.609 36.0078 190.625 35.6641 191.406 34.9766C 192.188 34.2891 192.594 33.375 192.625 32.2344L 198.977 32.2344C 198.961 33.9531 198.492 35.5312 197.57 36.9688C 196.648 38.3906 195.383 39.5 193.773 40.2969C 192.18 41.0781 190.414 41.4688 188.477 41.4688C 184.852 41.4688 181.992 40.3203 179.898 38.0234C 177.805 35.7109 176.758 32.5234 176.758 28.4609L 176.758 28.0156C 176.758 24.1094 177.797 20.9922 179.875 18.6641C 181.953 16.3359 184.805 15.1719 188.43 15.1719C 191.602 15.1719 194.141 16.0781 196.047 17.8906C 197.969 19.6875 198.945 22.0859 198.977 25.0859L 192.625 25.0859C 192.594 23.7734 192.188 22.7109 191.406 21.8984C 190.625 21.0703 189.594 20.6562 188.312 20.6562C 186.734 20.6562 185.539 21.2344 184.727 22.3906C 183.93 23.5312 183.531 25.3906 183.531 27.9688L 183.531 28.6719C 183.531 31.2812 183.93 33.1562 184.727 34.2969C 185.523 35.4375 186.734 36.0078 188.359 36.0078ZM 214.516 41.4688C 210.797 41.4688 207.766 40.3281 205.422 38.0469C 203.094 35.7656 201.93 32.7266 201.93 28.9297L 201.93 28.2734C 201.93 25.7266 202.422 23.4531 203.406 21.4531C 204.391 19.4375 205.781 17.8906 207.578 16.8125C 209.391 15.7187 211.453 15.1719 213.766 15.1719C 217.234 15.1719 219.961 16.2656 221.945 18.4531C 223.945 20.6406 224.945 23.7422 224.945 27.7578L 224.945 30.5234L 208.797 30.5234C 209.016 32.1797 209.672 33.5078 210.766 34.5078C 211.875 35.5078 213.273 36.0078 214.961 36.0078C 217.57 36.0078 219.609 35.0625 221.078 33.1719L 224.406 36.8984C 223.391 38.3359 222.016 39.4609 220.281 40.2734C 218.547 41.0703 216.625 41.4688 214.516 41.4688ZM 213.742 20.6562C 212.398 20.6562 211.305 21.1094 210.461 22.0156C 209.633 22.9219 209.102 24.2188 208.867 25.9062L 218.289 25.9062L 218.289 25.3672C 218.258 23.8672 217.852 22.7109 217.07 21.8984C 216.289 21.0703 215.18 20.6562 213.742 20.6562ZM 230.57 49.5547L 227.031 47.7031L 227.875 46.1797C 228.922 44.2734 229.461 42.375 229.492 40.4844L 229.492 35.2344L 235.211 35.2344L 235.188 39.9219C 235.172 41.6562 234.734 43.4062 233.875 45.1719C 233.016 46.9375 231.914 48.3984 230.57 49.5547ZM 280.703 41L 273.672 41L 273.672 26.375L 259.961 26.375L 259.961 41L 252.93 41L 252.93 6.875L 259.961 6.875L 259.961 20.7031L 273.672 20.7031L 273.672 6.875L 280.703 6.875L 280.703 41ZM 285.367 28.0859C 285.367 25.5703 285.852 23.3281 286.82 21.3594C 287.789 19.3906 289.18 17.8672 290.992 16.7891C 292.82 15.7109 294.938 15.1719 297.344 15.1719C 300.766 15.1719 303.555 16.2188 305.711 18.3125C 307.883 20.4062 309.094 23.25 309.344 26.8438L 309.391 28.5781C 309.391 32.4688 308.305 35.5938 306.133 37.9531C 303.961 40.2969 301.047 41.4688 297.391 41.4688C 293.734 41.4688 290.812 40.2969 288.625 37.9531C 286.453 35.6094 285.367 32.4219 285.367 28.3906L 285.367 28.0859ZM 292.141 28.5781C 292.141 30.9844 292.594 32.8281 293.5 34.1094C 294.406 35.375 295.703 36.0078 297.391 36.0078C 299.031 36.0078 300.312 35.3828 301.234 34.1328C 302.156 32.8672 302.617 30.8516 302.617 28.0859C 302.617 25.7266 302.156 23.8984 301.234 22.6016C 300.312 21.3047 299.016 20.6562 297.344 20.6562C 295.688 20.6562 294.406 21.3047 293.5 22.6016C 292.594 23.8828 292.141 25.875 292.141 28.5781ZM 320.711 41L 313.914 41L 313.914 5L 320.711 5L 320.711 41ZM 325.258 28.1328C 325.258 24.1797 326.141 21.0312 327.906 18.6875C 329.688 16.3438 332.117 15.1719 335.195 15.1719C 337.664 15.1719 339.703 16.0938 341.312 17.9375L 341.312 5L 348.109 5L 348.109 41L 341.992 41L 341.664 38.3047C 339.977 40.4141 337.805 41.4688 335.148 41.4688C 332.164 41.4688 329.766 40.2969 327.953 37.9531C 326.156 35.5938 325.258 32.3203 325.258 28.1328ZM 332.031 28.625C 332.031 31 332.445 32.8203 333.273 34.0859C 334.102 35.3516 335.305 35.9844 336.883 35.9844C 338.977 35.9844 340.453 35.1016 341.312 33.3359L 341.312 23.3281C 340.469 21.5625 339.008 20.6797 336.93 20.6797C 333.664 20.6797 332.031 23.3281 332.031 28.625ZM 365.031 41.4688C 361.312 41.4688 358.281 40.3281 355.938 38.0469C 353.609 35.7656 352.445 32.7266 352.445 28.9297L 352.445 28.2734C 352.445 25.7266 352.938 23.4531 353.922 21.4531C 354.906 19.4375 356.297 17.8906 358.094 16.8125C 359.906 15.7187 361.969 15.1719 364.281 15.1719C 367.75 15.1719 370.477 16.2656 372.461 18.4531C 374.461 20.6406 375.461 23.7422 375.461 27.7578L 375.461 30.5234L 359.312 30.5234C 359.531 32.1797 360.188 33.5078 361.281 34.5078C 362.391 35.5078 363.789 36.0078 365.477 36.0078C 368.086 36.0078 370.125 35.0625 371.594 33.1719L 374.922 36.8984C 373.906 38.3359 372.531 39.4609 370.797 40.2734C 369.062 41.0703 367.141 41.4688 365.031 41.4688ZM 364.258 20.6562C 362.914 20.6562 361.82 21.1094 360.977 22.0156C 360.148 22.9219 359.617 24.2188 359.383 25.9062L 368.805 25.9062L 368.805 25.3672C 368.773 23.8672 368.367 22.7109 367.586 21.8984C 366.805 21.0703 365.695 20.6562 364.258 20.6562ZM 393.578 21.9922C 392.656 21.8672 391.844 21.8047 391.141 21.8047C 388.578 21.8047 386.898 22.6719 386.102 24.4062L 386.102 41L 379.328 41L 379.328 15.6406L 385.727 15.6406L 385.914 18.6641C 387.273 16.3359 389.156 15.1719 391.562 15.1719C 392.312 15.1719 393.016 15.2734 393.672 15.4766L 393.578 21.9922Z"/>
<path id="path9_fill" d="M 0 16C 0 7.16344 7.16344 0 16 0L 94 0C 102.837 0 110 7.16344 110 16L 110 48C 110 56.8366 102.837 64 94 64L 16 64C 7.16344 64 0 56.8366 0 48L 0 16Z"/>
<path id="path10_stroke" d="M 16 2L 94 2L 94 -2L 16 -2L 16 2ZM 108 16L 108 48L 112 48L 112 16L 108 16ZM 94 62L 16 62L 16 66L 94 66L 94 62ZM 2 48L 2 16L -2 16L -2 48L 2 48ZM 16 -2C 6.05887 -2 -2 6.05887 -2 16L 2 16C 2 8.26801 8.26801 2 16 2L 16 -2ZM 94 2C 101.732 2 108 8.26801 108 16L 112 16C 112 6.05887 103.941 -2 94 -2L 94 2ZM 108 48C 108 55.732 101.732 62 94 62L 94 66C 103.941 66 112 57.9411 112 48L 108 48ZM 16 62C 8.26801 62 2 55.732 2 48L -2 48C -2 57.9411 6.05887 66 16 66L 16 62Z"/>
<path id="path11_fill" d="M 3.40625 36.75L 6.1875 13.5L 32.7812 13.5L 32.7812 21.6875L 14.75 21.6875L 13.7188 30.7188C 14.4688 30.2812 15.4479 29.8958 16.6562 29.5625C 17.8854 29.2292 19.0833 29.0625 20.25 29.0625C 24.7708 29.0625 28.2396 30.4062 30.6562 33.0938C 33.0938 35.7604 34.3125 39.5104 34.3125 44.3438C 34.3125 47.2604 33.6562 49.9062 32.3438 52.2812C 31.0521 54.6354 29.2292 56.4479 26.875 57.7188C 24.5208 58.9896 21.7396 59.625 18.5312 59.625C 15.6771 59.625 13 59.0417 10.5 57.875C 8 56.6875 6.04167 55.0729 4.625 53.0312C 3.20833 50.9688 2.51042 48.6458 2.53125 46.0625L 13.0938 46.0625C 13.1979 47.7292 13.7292 49.0521 14.6875 50.0312C 15.6458 51.0104 16.9062 51.5 18.4688 51.5C 22.0104 51.5 23.7812 48.875 23.7812 43.625C 23.7812 38.7708 21.6146 36.3438 17.2812 36.3438C 14.8229 36.3438 12.9896 37.1354 11.7812 38.7188L 3.40625 36.75ZM 71.4688 19.125L 54.4688 59L 43.3438 59L 60.375 21.625L 38.6875 21.625L 38.6875 13.5L 71.4688 13.5L 71.4688 19.125ZM 77.7812 23.9688C 77.7812 20.6354 78.7708 17.9583 80.75 15.9375C 82.75 13.8958 85.3646 12.875 88.5938 12.875C 91.8229 12.875 94.4375 13.8854 96.4375 15.9062C 98.4375 17.9271 99.4375 20.6667 99.4375 24.125L 99.4375 26.375C 99.4375 29.6875 98.4583 32.3646 96.5 34.4062C 94.5417 36.4271 91.9271 37.4375 88.6562 37.4375C 85.3646 37.4375 82.7292 36.4167 80.75 34.375C 78.7708 32.3333 77.7812 29.6146 77.7812 26.2188L 77.7812 23.9688ZM 83.25 26.375C 83.25 28.4167 83.7292 30.0104 84.6875 31.1562C 85.6667 32.3021 86.9896 32.875 88.6562 32.875C 90.2812 32.875 91.5625 32.3125 92.5 31.1875C 93.4583 30.0625 93.9479 28.4896 93.9688 26.4688L 93.9688 23.9688C 93.9688 21.9479 93.4792 20.3646 92.5 19.2188C 91.5417 18.0729 90.2396 17.5 88.5938 17.5C 86.9688 17.5 85.6667 18.0729 84.6875 19.2188C 83.7292 20.3438 83.25 21.9688 83.25 24.0938L 83.25 26.375Z"/>
<path id="path12_fill" d="M 40.75 34.7188L 22.4375 34.7188L 22.4375 54L 14.5312 54L 14.5312 8.5L 43.4375 8.5L 43.4375 14.875L 22.4375 14.875L 22.4375 28.4062L 40.75 28.4062L 40.75 34.7188Z"/>
<path id="path13_fill" d="M 45.9375 39.1875C 45.4792 44.0417 43.6875 47.8333 40.5625 50.5625C 37.4375 53.2708 33.2812 54.625 28.0938 54.625C 24.4688 54.625 21.2708 53.7708 18.5 52.0625C 15.75 50.3333 13.625 47.8854 12.125 44.7188C 10.625 41.5521 9.84375 37.875 9.78125 33.6875L 9.78125 29.4375C 9.78125 25.1458 10.5417 21.3646 12.0625 18.0938C 13.5833 14.8229 15.7604 12.3021 18.5938 10.5312C 21.4479 8.76042 24.7396 7.875 28.4688 7.875C 33.4896 7.875 37.5312 9.23958 40.5938 11.9688C 43.6562 14.6979 45.4375 18.5521 45.9375 23.5312L 38.0625 23.5312C 37.6875 20.2604 36.7292 17.9062 35.1875 16.4688C 33.6667 15.0104 31.4271 14.2812 28.4688 14.2812C 25.0312 14.2812 22.3854 15.5417 20.5312 18.0625C 18.6979 20.5625 17.7604 24.2396 17.7188 29.0938L 17.7188 33.125C 17.7188 38.0417 18.5938 41.7917 20.3438 44.375C 22.1146 46.9583 24.6979 48.25 28.0938 48.25C 31.1979 48.25 33.5312 47.5521 35.0938 46.1562C 36.6562 44.7604 37.6458 42.4375 38.0625 39.1875L 45.9375 39.1875Z"/>
</defs>
</svg>
