<svg version="1" xmlns="http://www.w3.org/2000/svg" width="346.667" height="346.667" viewBox="0 0 260.000000 260.000000"><path d="M134 10.1c0 2.4 16.8 49.8 20.6 57.9 5.9 12.5 14.1 20 21.9 20 5 0 42.7 4.6 53.5 6.6 18.3 3.3 23.4 4.4 24.2 5.2 2.7 2.7-11.7 12.2-20.7 13.7-2.2.4-6.5 2.2-9.5 4-3 1.8-6.6 3.6-7.9 4-3.7 1.1-13.3 8.9-18.2 14.6-4.6 5.6-7.7 8.8-15 15.6-5.1 4.7-6.1 6.4-8.4 14.8-1 3.3-2.4 7.9-3.2 10.1-1 2.9-1.2 4.7-.5 6 1.4 2.7 1 12.3-.6 13.3-1.1.7-11.5-.5-25.3-2.9-7.8-1.4-13.1-1.2-17.3.5-2 .9-5 1.7-6.6 1.9-1.7.2-4.7 1.5-6.8 2.8-2 1.4-6.6 4.3-10.2 6.6-3.6 2.3-8.1 5.6-10 7.4-3.4 3.1-26.1 22.6-32.4 27.9-1.6 1.3-5.1 4.5-7.7 7.1-4.2 4-4.6 4.8-3.3 5.9 1.6 1.3 13.9-4.3 59.9-27.5l19.9-10.1 37.4 18.8c39.8 20.1 43.3 21.3 44 15.7.1-1.4-2.4-20.4-5.8-42.4-3.3-21.9-6-40.8-6-42 0-1.4 9.3-11.4 29.4-31.6 16.2-16.2 29.7-30.4 30-31.6 1.3-4.3.6-4.5-49.4-12.9-17.9-3-33.6-5.8-34.8-6.2-2.4-.8-4.6-4.7-26-45.3C138.9 18.4 134 9.4 134 10.1z"/><path d="M103 105.5c-2.5 2.7-2.5 2.7-2.5 23.5s0 20.8 2.5 23.5c3.3 3.5 8.4 3.2 11.4-.8 2-2.7 2.1-4.1 2.1-22.1-.1-17.4-.3-19.5-2.1-22.6-2.7-4.7-7.8-5.4-11.4-1.5zm7 8.4c1.3 2.5 1.3 6.7-.1 9.2-1.7 3.3-3.9.5-3.9-5.1 0-6.2 1.8-8.1 4-4.1zM147.1 105.6c-2.9 3.7-3.5 7.9-3.5 23.9-.1 16 .6 20.3 3.5 23.3 2.9 3.2 8.2 3 10.8-.4 2-2.5 2.1-3.9 2.1-23.6 0-20.8 0-20.9-2.5-23.3-3.3-3.4-7.7-3.3-10.4.1zm6.9 9.3c1.4 2.8 1.2 5.3-.7 8-1.5 2.3-1.7 2.3-3 .6-1.4-2-1.7-6.2-.7-8.9.8-2.2 3.1-2 4.4.3zM7.6 109.3c.6 1 12.7 13.7 27 28.4 14.2 14.6 25.9 27.1 25.8 27.7 0 .6-.4 3.6-.7 6.6-.6 5.5-.6 5.5.8 2 .7-1.9 1.4-6.4 1.4-10.1.1-5.5-.3-7.2-2.7-11-2.8-4.3-11.1-12.5-18.1-17.7-2-1.5-8.5-6.8-14.6-11.7-17.1-13.9-19.9-16.1-18.9-14.2z"/></svg>