<svg width="789" height="789" viewBox="0 0 789 789" version="1.1" xmlns="http://www.w3.org/2000/svg" xmlns:xlink="http://www.w3.org/1999/xlink">
<title>canvas icon</title>
<desc>Created using Figma</desc>
<g id="Canvas" transform="translate(371 415)">
<g id="canvas icon">
<g id="Line">
<use xlink:href="#path0_stroke" transform="matrix(0.344299 0.93886 -0.940714 0.339201 -156.921 -404.682)" fill="#F2F2F2"/>
</g>
<g id="Line">
<use xlink:href="#path1_stroke" transform="matrix(-0.405597 0.914052 -0.91656 -0.399898 185.17 -419)" fill="#F2F2F2"/>
</g>
<g id="Line">
<use xlink:href="#path2_stroke" transform="matrix(-0.932054 0.362319 -0.367662 -0.92996 406.78 -186.848)" fill="#F2F2F2"/>
</g>
<g id="Line">
<use xlink:href="#path3_stroke" transform="matrix(-0.945389 -0.325945 0.330893 -0.943668 423 130.368)" fill="#F2F2F2"/>
</g>
<g id="Line">
<use xlink:href="#path4_stroke" transform="matrix(-0.374055 -0.927406 0.921472 -0.388445 211.579 358.716)" fill="#F2F2F2"/>
</g>
<g id="Line">
<use xlink:href="#path1_stroke" transform="matrix(0.405597 -0.914052 0.91656 0.399898 -101.567 381)" fill="#F2F2F2"/>
</g>
<g id="Line">
<use xlink:href="#path2_stroke" transform="matrix(0.932054 -0.362319 0.367662 0.92996 -353.992 189.49)" fill="#F2F2F2"/>
</g>
<g id="Line">
<use xlink:href="#path3_stroke" transform="matrix(0.945389 0.325945 -0.330893 0.943668 -377 -141.849)" fill="#F2F2F2"/>
</g>
<g id="Ellipse">
<use xlink:href="#path5_stroke" transform="translate(-156.921 -188.893)" fill="#F2F2F2"/>
</g>
</g>
</g>
<defs>
<path id="path0_stroke" d="M 24 -48C 10.7452 -48 0 -37.2548 0 -24C 0 -10.7452 10.7452 0 24 0L 24 -48ZM 138.64 0C 151.895 0 162.64 -10.7452 162.64 -24C 162.64 -37.2548 151.895 -48 138.64 -48L 138.64 0ZM 24 0L 138.64 0L 138.64 -48L 24 -48L 24 0Z"/>
<path id="path1_stroke" d="M 24 -48C 10.7452 -48 0 -37.2548 0 -24C 0 -10.7452 10.7452 0 24 0L 24 -48ZM 138.703 0C 151.958 0 162.703 -10.7452 162.703 -24C 162.703 -37.2548 151.958 -48 138.703 -48L 138.703 0ZM 24 0L 138.703 0L 138.703 -48L 24 -48L 24 0Z"/>
<path id="path2_stroke" d="M 24 -48C 10.7452 -48 0 -37.2548 0 -24C 0 -10.7452 10.7452 0 24 0L 24 -48ZM 139.674 0C 152.929 0 163.674 -10.7452 163.674 -24C 163.674 -37.2548 152.929 -48 139.674 -48L 139.674 0ZM 24 0L 139.674 0L 139.674 -48L 24 -48L 24 0Z"/>
<path id="path3_stroke" d="M 24 -48C 10.7452 -48 0 -37.2548 0 -24C 0 -10.7452 10.7452 0 24 0L 24 -48ZM 139.709 0C 152.963 0 163.709 -10.7452 163.709 -24C 163.709 -37.2548 152.963 -48 139.709 -48L 139.709 0ZM 24 0L 139.709 0L 139.709 -48L 24 -48L 24 0Z"/>
<path id="path4_stroke" d="M 24 -48C 10.7452 -48 0 -37.2548 0 -24C 0 -10.7452 10.7452 0 24 0L 24 -48ZM 135.278 0C 148.533 0 159.278 -10.7452 159.278 -24C 159.278 -37.2548 148.533 -48 135.278 -48L 135.278 0ZM 24 0L 135.278 0L 135.278 -48L 24 -48L 24 0Z"/>
<path id="path5_stroke" d="M 336.869 178.917C 336.869 264.285 267.022 333.834 180.434 333.834L 180.434 381.834C 293.149 381.834 384.869 291.176 384.869 178.917L 336.869 178.917ZM 180.434 333.834C 93.8465 333.834 24 264.285 24 178.917L -24 178.917C -24 291.176 67.7198 381.834 180.434 381.834L 180.434 333.834ZM 24 178.917C 24 93.5494 93.8465 24 180.434 24L 180.434 -24C 67.7198 -24 -24 66.6584 -24 178.917L 24 178.917ZM 180.434 24C 267.022 24 336.869 93.5494 336.869 178.917L 384.869 178.917C 384.869 66.6584 293.149 -24 180.434 -24L 180.434 24Z"/>
</defs>
</svg>
